<svg xmlns="http://www.w3.org/2000/svg">
  <svg id="fa-a" height="1em" viewBox="0 0 384 512">
    <!--! Font Awesome Free 6.4.2 by @fontawesome - https://fontawesome.com License - https://fontawesome.com/license (Commercial License) Copyright 2023 Fonticons, Inc. -->
    <path d="M221.5 51.7C216.6 39.8 204.9 32 192 32s-24.6 7.8-29.5 19.7l-120 288-40 96c-6.8 16.3 .9 35 17.2 41.8s35-.9 41.8-17.2L93.3 384H290.7l31.8 76.3c6.8 16.3 25.5 24 41.8 17.2s24-25.5 17.2-41.8l-40-96-120-288zM264 320H120l72-172.8L264 320z"/>
  </svg>

  <svg id="fa-b" height="1em" viewBox="0 0 320 512">
    <!--! Font Awesome Free 6.4.2 by @fontawesome - https://fontawesome.com License - https://fontawesome.com/license (Commercial License) Copyright 2023 Fonticons, Inc. -->
    <path d="M64 32C28.7 32 0 60.7 0 96V256 416c0 35.3 28.7 64 64 64H192c70.7 0 128-57.3 128-128c0-46.5-24.8-87.3-62-109.7c18.7-22.3 30-51 30-82.3c0-70.7-57.3-128-128-128H64zm96 192H64V96h96c35.3 0 64 28.7 64 64s-28.7 64-64 64zM64 288h96 32c35.3 0 64 28.7 64 64s-28.7 64-64 64H64V288z"/>
  </svg>

  <svg id="fa-arrow-up" height="1em" viewBox="0 0 384 512">
    <!--! Font Awesome Free 6.4.2 by @fontawesome - https://fontawesome.com License - https://fontawesome.com/license (Commercial License) Copyright 2023 Fonticons, Inc. -->
    <path d="M214.6 41.4c-12.5-12.5-32.8-12.5-45.3 0l-160 160c-12.5 12.5-12.5 32.8 0 45.3s32.8 12.5 45.3 0L160 141.2V448c0 17.7 14.3 32 32 32s32-14.3 32-32V141.2L329.4 246.6c12.5 12.5 32.8 12.5 45.3 0s12.5-32.8 0-45.3l-160-160z"/>
  </svg>

  <svg id="fa-arrow-down" height="1em" viewBox="0 0 384 512">
    <!--! Font Awesome Free 6.4.2 by @fontawesome - https://fontawesome.com License - https://fontawesome.com/license (Commercial License) Copyright 2023 Fonticons, Inc. -->
    <path d="M169.4 470.6c12.5 12.5 32.8 12.5 45.3 0l160-160c12.5-12.5 12.5-32.8 0-45.3s-32.8-12.5-45.3 0L224 370.8 224 64c0-17.7-14.3-32-32-32s-32 14.3-32 32l0 306.7L54.6 265.4c-12.5-12.5-32.8-12.5-45.3 0s-12.5 32.8 0 45.3l160 160z"/>
  </svg>

  <svg id="fa-arrow-left" height="1em" viewBox="0 0 448 512">
    <!--! Font Awesome Free 6.4.2 by @fontawesome - https://fontawesome.com License - https://fontawesome.com/license (Commercial License) Copyright 2023 Fonticons, Inc. -->
    <path d="M9.4 233.4c-12.5 12.5-12.5 32.8 0 45.3l160 160c12.5 12.5 32.8 12.5 45.3 0s12.5-32.8 0-45.3L109.2 288 416 288c17.7 0 32-14.3 32-32s-14.3-32-32-32l-306.7 0L214.6 118.6c12.5-12.5 12.5-32.8 0-45.3s-32.8-12.5-45.3 0l-160 160z"/>
  </svg>

  <svg id="fa-arrow-right" height="1em" viewBox="0 0 448 512">
    <!--! Font Awesome Free 6.4.2 by @fontawesome - https://fontawesome.com License - https://fontawesome.com/license (Commercial License) Copyright 2023 Fonticons, Inc. -->
    <path d="M438.6 278.6c12.5-12.5 12.5-32.8 0-45.3l-160-160c-12.5-12.5-32.8-12.5-45.3 0s-12.5 32.8 0 45.3L338.8 224 32 224c-17.7 0-32 14.3-32 32s14.3 32 32 32l306.7 0L233.4 393.4c-12.5 12.5-12.5 32.8 0 45.3s32.8 12.5 45.3 0l160-160z"/>
  </svg>
</svg>
